<svg xmlns="http://www.w3.org/2000/svg" viewBox="0 0 26 202.8"><defs><style>.cls-1{fill:#f1f1f1;}.cls-2{fill:#e5e5e5;}</style></defs><title>Hour</title><g id="Layer_2" data-name="Layer 2"><g id="Hour"><path class="cls-1" d="M13,181.44,12.9,0C11.24,2.89.21,169.05.21,169.05,2.35,170.32,7,177.2,10.06,182A8.37,8.37,0,0,1,13,181.44Z"/><path class="cls-2" d="M12.9,0,13,181.44a8.21,8.21,0,0,1,2.94.54c3.06-4.79,7.7-11.67,9.84-12.94C25.77,169,14.56,2.89,12.9,0Z"/><path class="cls-1" d="M13,176.8a13,13,0,1,0,13,13A13,13,0,0,0,13,176.8Zm0,21.36a8.36,8.36,0,1,1,8.36-8.37A8.36,8.36,0,0,1,13,198.16Z"/></g></g></svg>