<svg xmlns="http://www.w3.org/2000/svg" viewBox="0 0 26 349.65"><defs><style>.cls-1{fill:#f1f1f1;}.cls-2{fill:#e5e5e5;}</style></defs><title>Minute</title><g id="Layer_2" data-name="Layer 2"><g id="Minute"><path class="cls-1" d="M13,328.29,13.07,0C11.41,2.89.22,315.9.22,315.9c2.14,1.26,6.78,8.15,9.84,12.93A8.49,8.49,0,0,1,13,328.29Z"/><path class="cls-2" d="M13.07,0,13,328.29a8.37,8.37,0,0,1,2.93.54c3.07-4.78,7.71-11.66,9.85-12.93C25.78,315.9,14.73,2.89,13.07,0Z"/><path class="cls-1" d="M13,323.65a13,13,0,1,0,13,13A13,13,0,0,0,13,323.65ZM13,345a8.36,8.36,0,1,1,8.36-8.36A8.36,8.36,0,0,1,13,345Z"/></g></g></svg>