<svg xmlns="http://www.w3.org/2000/svg" viewBox="0 0 449.88 450.8"><defs><style>.cls-1{fill:#fff;}</style></defs><title>Gear</title><g id="Layer_2" data-name="Layer 2"><g id="Gear"><path class="cls-1" d="M436.77,247.09c4.76-.55,10.4.66,12.53-4.89,1.43-3.7.2-8.89-3.43-10.87-4.46-2.43-11,0-13.73-5.62-2.13-4.43,1.33-9.06,5.51-10.45,4.43-1.47,9.58-.87,11.36-6.19a8.4,8.4,0,0,0-6.85-11.1c-4.66-.63-11,1.3-13.2-4.57-1.74-4.7,2.19-8.53,6.1-10.22,4.18-1.81,8.88-2.55,9.14-8.11a8.63,8.63,0,0,0-9.15-9.06c-5.13.14-12.93,2.49-13.85-5.21-.66-5.5,4.28-7.67,8.11-10.06s5.9-5.63,4.25-10.23c-2.32-6.45-8.06-5.43-13.37-4-4.84,1.28-11.36.23-11.17-6.16.15-5.5,5.64-7.35,8.75-10.89a8.07,8.07,0,0,0-3-12.69c-5.93-2.55-10.27,3.9-16,3-6.63-1-6.91-8.24-3.62-12.58s8.42-8,4.41-14c-3.32-4.94-8-4.19-12.51-1.49-4.63,2.79-13.4,6.28-14.55-2.48-.69-5.2,4.7-8.66,5.95-13.29,1.42-5.26-3.9-10.91-9.29-9.81-5.2,1.06-7.78,7.33-13.37,7.5-7.25.22-7.61-7.58-5.29-12.43,2.14-4.48,4-9.11-.35-13-4.86-4.4-9.39-1.64-12.94,2.56-2.56,3-5.87,6.44-10.29,5.06-7.61-2.37-3.45-10.2-2.44-15.23a8.49,8.49,0,0,0-6.71-10.16c-5.82-1.15-7.64,3.33-10.29,7.31-2.23,3.34-6.14,5.95-10.28,4.21-5.87-2.46-3.47-8.7-2.94-13.4a8.52,8.52,0,0,0-7-9.64c-6.42-1.16-8.14,4.2-10.2,8.93-1.53,3.52-4.61,6.23-8.68,5.57-6.45-1-5.7-7.45-5.69-12.35C262.67.14,248.32-.68,246,9.48c-1,4.48-2.23,9.85-8,9.7-5.22-.13-7.11-4.73-7.61-9.2-.55-4.83-1.85-9.5-7.51-10C217-.43,214,4,213.6,9.26c-.37,4.51-.9,10.12-6.68,10.37s-7.71-4.71-8.94-9.21-4.06-8.16-9.35-7.33c-5.92.92-7.43,5.66-7.07,10.83.33,4.87-.63,11.19-7,10.94-5.22-.21-6.78-4.88-8.77-8.8C163.76,12,160.05,9.13,155.25,11c-6.34,2.45-5.06,8.75-4.19,14,.82,4.85-1.54,10.78-7.58,9.67s-6.86-8-11.53-10.77c-3.65-2.19-9.8-.26-11.54,3.76C119,31,121.11,34.74,122,38c1,3.95.87,8.53-3.46,10.51-5.52,2.54-9.27-3.58-12.85-6.55-4.15-3.45-10.07-3.32-12.93,1.86-3.1,5.62,3.14,10.4,3.73,15.76a6.77,6.77,0,0,1-6.8,7.71c-3.54,0-6.34-2.75-9.06-4.65-2.44-1.7-5.06-3.41-8.12-2.27A8.33,8.33,0,0,0,68,72.23c2.24,4,7,7.77,4.88,13-2.74,6.64-9.45,3.52-13.9,1-4.14-2.36-9.09-3-12.25,1.29-4.12,5.56-.1,9.45,3.71,13.37,2.71,2.79,4.68,7,2.27,10.65-3.95,6-10,1.31-14.88,0a8.79,8.79,0,0,0-10.79,7.85c-.36,6,5.33,6.88,8.62,10.38,2.55,2.71,3.44,7.15,1,10.27-3.48,4.51-8.77,1.56-13.17.72a8,8,0,0,0-9.68,6.07c-1.78,6.56,3.31,8.67,8.1,11.21,3.41,1.81,5.82,5,4.65,9.08-1.41,4.91-6.07,5.51-10.43,5-5.39-.62-10.33.15-11.54,6.33-1.11,5.61,2.3,8.53,7.22,10,4.48,1.32,10,3.67,8.37,9.45-1.45,5.11-6.52,5.79-11,6-4.87.23-9,2.18-9.2,7.62-.24,6.68,5,8.39,10.46,9.28,4.73.78,9.44,3.95,7.54,9.45s-7.27,5.05-11.76,6.59a8.21,8.21,0,0,0-4.9,11.63C4.28,254.22,10,252,15.1,253c5.61,1,8.12,6.86,4.46,11.38-3,3.78-8.37,3.31-11.73,6.5-3.1,2.95-2.58,8.39.27,11.38,4.66,4.88,10.47.27,15.86,2.05,4.95,1.63,6.07,7.52,3,11.39-2.86,3.59-8.71,4.15-10.63,8.63s1.11,10.21,5.76,11.2c5.22,1.11,10.33-3.93,15.41-1,5.63,3.22,3.32,9.31-.46,12.79-4,3.63-9.15,6.6-5.94,12.72,2.35,4.47,6.6,5.43,11.08,3.8,5-1.83,13.5-5.65,14.91,3.09.9,5.61-5.29,8.56-7.4,12.94C47.22,365,51.59,372,57.46,371.36c5.12-.57,8.74-6.32,14.14-5.63,7.89,1,5.75,9.38,2.79,13.85-3.23,4.89-5,10.23,1,13.95s9.42-2,14.26-4.8c3.8-2.19,8.48-2,10.71,2.25,3.13,6-4.1,10.57-3.32,16.55.56,4.27,4.76,8,9.2,7.43,4.83-.65,6.39-6.17,10-8.62s8.82-1.89,10.81,2.43c2.66,5.75-3.81,10.88-1.29,16.6,1.82,4.12,7.26,6.62,11.43,4.47,4.6-2.37,4.68-8.8,9.73-10.81,3.38-1.34,7.34-.41,9.11,2.93,2.92,5.54-3.22,11.79,1.23,17,2.56,3,7.55,4.11,11,1.95,4.56-2.87,3.48-9.66,8.07-12.53a7.25,7.25,0,0,1,9.86,2.33c3.12,4.8-1.08,11.21,3.15,15.54a9.11,9.11,0,0,0,11,1c5.08-3.34,2.46-10.67,7.17-14.29,3.35-2.59,8-1.38,10.29,2,3.13,4.5.23,11.21,5.43,14.6A8.66,8.66,0,0,0,234.14,448c3.68-4.13.66-10.25,4.16-14.43,3-3.61,8.15-2.75,11,.59,3.14,3.64,2,9.74,6.27,12.51,3.63,2.33,9,1.1,11.51-2.35,3.69-5.14-1.65-12.37,3.76-16.88,9.58-8,12.28,11.45,19.33,12.74,5,.93,9-2.51,9.57-7.41s-3.19-10.12.47-14.33c4.95-5.69,10.57-.23,13.65,4.07s7,7.13,12.36,3.93c8.4-5-.8-12.76,1.27-19.62,2.34-7.74,9.49-5,13.63-1.06,4.3,4.09,9.1,8.61,14.48,3.18,5-5.06.56-9.61-1.44-14.77-1.77-4.57-.12-9.93,5.38-10.54s7.94,5,12.47,6.6c5.42,2,12.47-3.06,11.07-9.1-1-4.42-5.73-6.89-6.38-11.54a6.91,6.91,0,0,1,8.64-7.93c5.08,1.28,8.45,6.7,14.26,4.44a8.17,8.17,0,0,0,3.91-12c-.16-.25-.33-.48-.51-.71-5.38-6.94,1.34-16.16,9.83-13.93a6.62,6.62,0,0,0,5-.52c4.9-2.55,6.7-9.37,2.6-13.36-3.25-3.15-8.41-4.24-8.75-9.61-.29-4.45,3.37-7.67,7.65-7.59,5.57.09,11.19,4.67,15.34-1.37,2.83-4.1,2-9.48-2.25-12.11-4-2.49-10-3.49-9.51-9.58.41-4.94,5-7.1,9.41-6.78,5,.35,10.09,1.3,12.44-4.28a8.43,8.43,0,0,0-4-10.92c-4.08-2-10.16-1.69-11.26-7.36C428.68,251.51,432.59,247.57,436.77,247.09ZM259.13,40.65C314.76,50.54,363.37,86.83,390,136.11a15.13,15.13,0,0,1-8.6,21.61l-89.74,29a1,1,0,0,1-1-.12c-1.54-1.32-4.24-6.53-5.2-7.75a84,84,0,0,0-9.61-10.34,78.93,78.93,0,0,0-23.36-14.73q-3.37-1.36-6.87-2.4c-.89-.26-3.84-.55-4.24-1.13-.19-.28.09-1,0-1.32-.62-2.2,0-5.52,0-7.79l0-12.77.06-34.52.06-38.36A15,15,0,0,1,259,40.62ZM244.48,284.76c-30.11,9.6-64.45-5.62-77-34.77-9-21-6.83-45.67,8.66-63,13.69-15.36,35-23.35,55.44-21.84,22.6,1.68,41.49,15.58,50.8,36.11C297,233.41,277.45,274.25,244.48,284.76ZM75.25,112C101.84,75,145.87,48.89,191,40.53a15.12,15.12,0,0,1,17.92,14.85l-.15,89.92c0,1,.51,3.71,0,4.6-.3.54-3.74.93-4.52,1.15a73.31,73.31,0,0,0-20.52,9.11,76.94,76.94,0,0,0-20.24,19.09c-.87,1.19-3.7,7-4.9,7.31-.37.1-1.14-.45-1.51-.49-2.43-.26-5.2-1.7-7.52-2.45l-12.62-4.13-32.83-10.73L68.84,157.24a15.12,15.12,0,0,1-8.52-21.65A234.16,234.16,0,0,1,75.25,112ZM112,352.65a15.11,15.11,0,0,1-23.41,1.21C58,320,38.41,273.11,37.44,228.39a191.27,191.27,0,0,1,1.38-27.69,15.11,15.11,0,0,1,19.67-12.54L146.85,217a2.33,2.33,0,0,1,1.63,2.21c0,1.92-.49,4.72-.51,5.63a76,76,0,0,0,1.73,17.54,73.9,73.9,0,0,0,12.7,28c1,1.38,5,5,4.94,6.31,0,.43-.86,1.08-1.06,1.46-3.19,6.11-8.6,11.8-12.66,17.36L133.4,323.32Zm169.24,52c-46.22,13.4-94.35,10.5-137.2-10a15.14,15.14,0,0,1-5.8-22.56L193,296.86a2.18,2.18,0,0,1,2.42-.82c2.13.69,5.55,2.36,6.5,2.67a79,79,0,0,0,16,3.36,74.81,74.81,0,0,0,32-3.63c1.37-.47,5.18-2.65,6.21-2.15.46.23.8,1.24,1.16,1.6,4.92,5,8.71,12,12.8,17.68l20.11,27.77,21.27,29.37a15.11,15.11,0,0,1-5.73,22.48A161.44,161.44,0,0,1,281.25,404.6ZM412.59,231.31c-1.44,45.75-20.24,90.3-51.47,123.61a15.12,15.12,0,0,1-23.28-1.42l-54.71-75.56a2.37,2.37,0,0,1-.06-2.76c1.38-2,4.2-4.87,4.91-5.93a77.93,77.93,0,0,0,7.07-13.09,81.6,81.6,0,0,0,6.3-28.52c.08-2.11-1.15-8.28-.09-9.77.22-.3,1.31-.35,1.64-.53,5.93-3.1,13.7-4.42,20.05-6.48l33.37-10.78,35.08-11.34A15.13,15.13,0,0,1,411,201.22,182.41,182.41,0,0,1,412.59,231.31Z"/></g></g></svg>